# xmcd
#
# Track frame offsets: 
#        150
#        21513
#        39139
#        59653
#        80172
#        99790
#        120229
#        140017
#
# Disc length: 2149 seconds
#
# Revision: 1
# Processed by: cddbd v1.5.2PL0 Copyright (c) Steve Scherf et al.
# Submitted via: ExactAudioCopy v0.99pb5
#
DISCID=64086308
DTITLE=Jesus Pagan y su Orquestra - Salsa de la Mata
DYEAR=1900
DGENRE=Salsa
TTITLE0=Ritmo Sabroso
TTITLE1=Salsa de la Mata
TTITLE2=Te Amo Tanto
TTITLE3=Tributo a la Salsa de Ayer 
TTITLE4=Aguajera
TTITLE5=Entre Lagrimas del Cielo
TTITLE6=LA Rumba Se Pone Buena
TTITLE7=No Hay Remedio
EXTD=Salsa submitted by Filipe  www.salsaholics.org
EXTT0=
EXTT1=
EXTT2=
EXTT3=
EXTT4=
EXTT5=
EXTT6=
EXTT7=
PLAYORDER=
